#!OML:ASF F:\VICON\USERDATA\INSTALL\rory3\rory3.ASF
:FULLY-SPECIFIED
:DEGREES
650
root 1.04561 17.9792 5.03052 178.452 186.523 -179.101
lowerback 19.8906 0.718149 -1.8642
upperback 0.986782 0.949006 4.0393
thorax -10.209 0.648772 5.26426
lowerneck -11.3371 0.897814 -2.951
upperneck 11.8518 2.08474 -2.6648
head 5.44198 0.69011 -0.18919
rclavicle 1.33186e-014 -1.11319e-014
rhumerus -24.0077 0.110245 -74.9969
rradius 54.1271
rwrist 34.916
rhand 6.36331 -3.7664
rfingers 7.12502
rthumb 31.6694 -31.0381
lclavicle 1.33186e-014 -1.11319e-014
lhumerus -42.928 2.0589 86.0484
lradius 53.6946
lwrist 7.60082
lhand -11.4489 48.7205
lfingers 7.12502
lthumb 14.588 78.1875
rfemur -13.5704 -0.0305102 22.3584
rtibia 37.697
rfoot -19.2827 -11.4863
rtoes 13.2951
lfemur -12.6885 -6.21426 -24.8211
ltibia 31.5754
lfoot -13.3657 7.53504
ltoes -2.35849
651
root 1.05206 17.9712 5.01948 178.401 186.566 -178.924
lowerback 19.8971 0.904632 -1.99389
upperback 0.930418 1.17229 4.07742
thorax -10.3037 0.76533 5.32001
lowerneck -10.8773 0.763202 -3.18414
upperneck 11.7008 1.90125 -2.55914
head 5.31451 0.605287 -0.135188
rclavicle -8.54774e-015 -1.59028e-014
rhumerus -23.1076 -0.841675 -74.4671
rradius 49.7822
rwrist 33.6276
rhand 9.0265 -4.20434
rfingers 7.12502
rthumb 34.2024 -30.9429
lclavicle -8.54774e-015 -1.59028e-014
lhumerus -42.9633 1.04149 86.8168
lradius 53.957
lwrist 7.61277
lhand -11.5433 48.0804
lfingers 7.12502
lthumb 14.4971 77.5539
rfemur -13.6654 -0.0265186 22.1422
rtibia 37.868
rfoot -19.3359 -11.4914
rtoes 12.914
lfemur -12.716 -6.12597 -25.0527
ltibia 31.5921
lfoot -13.2674 7.59631
ltoes -2.79857
652
root 1.05769 17.9681 5.00317 178.26 186.441 -178.76
lowerback 20.0274 1.06324 -2.05523
upperback 1.1056 1.36771 4.12241
thorax -10.2045 0.856682 5.34782
lowerneck -11.252 0.603623 -3.28127
upperneck 11.7598 1.73778 -2.67422
head 5.39754 0.508374 -0.166531
rclavicle -1.63003e-014 2.06736e-014
rhumerus -21.889 -2.40275 -73.8499
rradius 45.455
rwrist 32.4141
rhand 10.6772 -4.25674
rfingers 7.12502
rthumb 35.7683 -30.6298
lclavicle -1.63003e-014 2.06736e-014
lhumerus -42.4841 -0.057923 87.5581
lradius 54.1239
lwrist 7.53316
lhand -11.6249 47.5123
lfingers 7.12502
lthumb 14.4184 76.9915
rfemur -13.6482 -0.100289 21.9415
rtibia 37.9971
rfoot -19.4002 -11.4635
rtoes 13.295
lfemur -12.7089 -6.10514 -25.2665
ltibia 31.629
lfoot -13.077 7.62248
ltoes -3.76338
653
root 1.06105 17.9669 4.98354 178.187 186.239 -178.888
lowerback 20.1928 1.12201 -1.83429
upperback 1.2202 1.50177 4.21411
thorax -10.1802 0.909557 5.28298
lowerneck -11.5432 0.375346 -3.18404
upperneck 11.8716 1.45596 -2.85507
head 5.48475 0.357035 -0.260422
rclavicle 1.39149e-014 7.95139e-015
rhumerus -21.0234 -4.5507 -73.2534
rradius 41.5209
rwrist 32.1272
rhand 11.1651 -3.72025
rfingers 7.12502
rthumb 36.2305 -29.9798
lclavicle 1.39149e-014 7.95139e-015
lhumerus -42.1718 -0.854965 88.1064
lradius 54.5226
lwrist 7.41029
lhand -11.7419 47.0871
lfingers 7.12502
lthumb 14.3057 76.5743
rfemur -13.6658 -0.165383 22.1051
rtibia 38.0853
rfoot -19.3765 -11.6132
rtoes 13.3676
lfemur -12.8182 -6.19882 -25.1132
ltibia 31.7124
lfoot -12.8762 7.52447
ltoes -4.14594
654
root 1.0644 17.9653 4.97074 178.056 186.208 -179.062
lowerback 20.5354 1.25708 -1.5882
upperback 1.26217 1.74694 4.31453
thorax -10.3462 1.01892 5.18334
lowerneck -11.7763 0.217217 -3.04002
upperneck 12.0012 1.26486 -3.08077
head 5.56759 0.248802 -0.369788
rclavicle 2.60408e-014 3.33958e-014
rhumerus -20.7677 -6.81882 -72.5653
rradius 38.4113
rwrist 32.2053
rhand 10.9747 -3.34228
rfingers 7.12502
rthumb 36.0502 -29.6464
lclavicle 2.60408e-014 3.33958e-014
lhumerus -42.0086 -1.82403 88.6775
lradius 54.6977
lwrist 7.285
lhand -11.8633 46.3754
lfingers 7.12502
lthumb 14.1888 75.8708
rfemur -13.6016 -0.0656956 22.3076
rtibia 38.1597
rfoot -19.3874 -11.764
rtoes 13.5947
lfemur -12.7783 -6.12334 -24.9275
ltibia 31.7664
lfoot -12.7489 7.42162
ltoes -3.69515
655
root 1.07234 17.9603 4.95877 178.099 186.054 -178.953
lowerback 20.6972 1.3822 -1.54858
upperback 1.22227 1.92564 4.32995
thorax -10.4992 1.10541 5.12646
lowerneck -12.0851 0.122802 -3.04939
upperneck 12.2967 1.16616 -3.08995
head 5.71282 0.189949 -0.379396
rclavicle 8.94531e-015 -1.27222e-014
rhumerus -20.96 -9.07261 -71.8059
rradius 36.2029
rwrist 32.2595
rhand 10.4877 -3.45121
rfingers 7.12502
rthumb 35.5887 -29.8677
lclavicle 8.94531e-015 -1.27222e-014
lhumerus -41.7595 -2.86852 89.227
lradius 54.5878
lwrist 7.0553
lhand -11.8751 45.4725
lfingers 7.12502
lthumb 14.1774 74.9687
rfemur -13.7373 -0.176357 22.149
rtibia 38.2463
rfoot -19.4258 -11.7845
rtoes 13.1458
lfemur -12.9334 -6.07624 -25.0706
ltibia 31.828
lfoot -12.7804 7.25308
ltoes -2.96017
656
root 1.08173 17.9577 4.95026 178.117 185.705 -178.68
lowerback 20.6679 1.44774 -1.56388
upperback 1.27562 2.00663 4.32541
thorax -10.4318 1.14238 5.10493
lowerneck -12.1438 -0.0232742 -3.23525
upperneck 12.1409 1.00468 -3.12715
head 5.67363 0.103056 -0.374343
rclavicle 1.55052e-014 -4.77083e-015
rhumerus -21.2497 -11.4052 -70.9567
rradius 34.5862
rwrist 32.6043
rhand 9.58016 -3.017
rfingers 7.12502
rthumb 34.728 -29.6361
lclavicle 1.55052e-014 -4.77083e-015
lhumerus -41.509 -3.84652 89.7308
lradius 54.8779
lwrist 6.46349
lhand -11.2261 45.8052
lfingers 7.12502
lthumb 14.8027 75.2565
rfemur -13.8011 -0.425128 21.7869
rtibia 38.3488
rfoot -19.6335 -11.6895
rtoes 13.2221
lfemur -13.1074 -6.18887 -25.4128
ltibia 31.873
lfoot -12.7094 7.15154
ltoes -4.30711
657
root 1.09097 17.9564 4.94095 178.213 185.445 -178.57
lowerback 20.6236 1.54187 -1.40193
upperback 1.22564 2.17523 4.36709
thorax -10.477 1.2173 5.00811
lowerneck -11.7608 -0.349869 -3.25877
upperneck 11.7728 0.587174 -3.50502
head 5.49552 -0.116645 -0.522424
rclavicle 2.00773e-014 7.95139e-015
rhumerus -22.1959 -13.3671 -69.9791
rradius 33.8459
rwrist 33.0944
rhand 8.4189 -2.67826
rfingers 7.12502
rthumb 33.6252 -29.5444
lclavicle 2.00773e-014 7.95139e-015
lhumerus -41.5079 -4.56672 90.2064
lradius 55.4011
lwrist 5.12794
lhand -9.83087 47.2783
lfingers 7.12502
lthumb 16.1465 76.6257
rfemur -13.9924 -0.647543 21.616
rtibia 38.4741
rfoot -19.6395 -11.6343
rtoes 12.9032
lfemur -13.3375 -6.13162 -25.5547
ltibia 31.9088
lfoot -12.608 6.97237
ltoes -5.72515
658
root 1.09935 17.9551 4.93239 178.282 185.271 -178.568
lowerback 20.748 1.63118 -1.18317
upperback 1.19815 2.35252 4.42225
thorax -10.5889 1.29399 4.89061
lowerneck -11.8795 -0.639664 -3.11191
upperneck 11.7353 0.230309 -3.90997
head 5.50434 -0.313858 -0.702799
rclavicle 3.97569e-016 -2.06736e-014
rhumerus -23.4866 -14.4986 -69.123
rradius 34.148
rwrist 33.44
rhand 7.2406 -2.227
rfingers 7.12502
rthumb 32.5047 -29.3304
lclavicle 3.97569e-016 -2.06736e-014
lhumerus -41.4905 -5.10222 90.533
lradius 55.6391
lwrist 4.75674
lhand -10.0676 45.6568
lfingers 7.12502
lthumb 15.9186 75.0226
rfemur -14.1664 -0.752816 21.5746
rtibia 38.5732
rfoot -19.5972 -11.8102
rtoes 12.4556
lfemur -13.4788 -5.97723 -25.5871
ltibia 31.9641
lfoot -12.4969 6.77213
ltoes -6.87529
659
root 1.10537 17.9538 4.92785 178.301 185.001 -178.519
lowerback 20.8171 1.68127 -1.08073
upperback 1.31115 2.44715 4.49626
thorax -10.509 1.33284 4.88421
lowerneck -12.266 -0.726674 -3.4202
upperneck 11.7875 0.143349 -3.57508
head 5.58518 -0.350755 -0.556845
rclavicle 1.66979e-014 6.83819e-014
rhumerus -24.4323 -15.2667 -68.4834
rradius 34.7544
rwrist 33.4628
rhand 5.54618 -1.54026
rfingers 7.12502
rthumb 30.8908 -28.9625
lclavicle 1.66979e-014 6.83819e-014
lhumerus -41.2943 -5.6876 90.7999
lradius 56.0643
lwrist 4.44148
lhand -9.95649 45.2298
lfingers 7.12502
lthumb 16.0255 74.587
rfemur -14.2322 -0.906011 21.4899
rtibia 38.6573
rfoot -19.5164 -11.9504
rtoes 11.5902
lfemur -13.5934 -6.00283 -25.6627
ltibia 32.0415
lfoot -12.4309 6.62349
ltoes -6.90206
